<?xml version="1.0" encoding="utf-8" standalone="no"?>
<!DOCTYPE svg PUBLIC "-//W3C//DTD SVG 1.1//EN"
  "http://www.w3.org/Graphics/SVG/1.1/DTD/svg11.dtd">
<svg height="288pt" version="1.1" viewBox="0 0 288 288" width="288pt" xmlns="http://www.w3.org/2000/svg" xmlns:xlink="http://www.w3.org/1999/xlink">
 <metadata>
  <rdf:RDF xmlns:cc="http://creativecommons.org/ns#" xmlns:dc="http://purl.org/dc/elements/1.1/" xmlns:rdf="http://www.w3.org/1999/02/22-rdf-syntax-ns#">
   <cc:Work>
    <dc:type rdf:resource="http://purl.org/dc/dcmitype/StillImage"/>
    <dc:date>2022-01-18T12:50:56.720025</dc:date>
    <dc:format>image/svg+xml</dc:format>
    <dc:creator>
     <cc:Agent>
      <dc:title>Matplotlib v3.4.2, https://matplotlib.org/</dc:title>
     </cc:Agent>
    </dc:creator>
   </cc:Work>
  </rdf:RDF>
 </metadata>
 <defs>
  <style type="text/css">*{stroke-linecap:butt;stroke-linejoin:round;}</style>
 </defs>
 <g id="figure_1">
  <g id="patch_1">
   <path d="M 0 288 
L 288 288 
L 288 0 
L 0 0 
z
" style="fill:none;"/>
  </g>
  <g id="axes_1">
   <g id="patch_2">
    <path d="M 232.025986 145.797151 
C 232.025986 126.517953 225.821374 107.741236 214.334356 92.25783 
C 202.847339 76.774423 186.676696 65.391425 168.225911 59.80072 
C 149.775126 54.210015 130.005977 54.703027 111.856801 61.206479 
C 93.707626 67.709931 78.12448 79.884819 67.423527 95.92156 
L 142.168446 145.797151 
L 232.025986 145.797151 
z
" style="fill:#092436;opacity:0.5;stroke:#092436;stroke-linejoin:miter;"/>
   </g>
   <g id="patch_3">
    <path d="M 67.423527 95.92156 
C 56.212102 112.723307 50.986877 132.824345 52.596766 152.958967 
C 54.206655 173.093589 62.559483 192.108977 76.298211 206.915803 
L 142.168446 145.797151 
L 67.423527 95.92156 
z
" style="fill:#4c2604;opacity:0.5;stroke:#4c2604;stroke-linejoin:miter;"/>
   </g>
   <g id="patch_4">
    <path d="M 76.298211 206.915803 
C 84.144786 215.372399 93.546964 222.239363 103.990078 227.140803 
C 114.433192 232.042243 125.72315 234.887063 137.241948 235.51954 
L 142.168446 145.797151 
L 76.298211 206.915803 
z
" style="fill:#0d300d;opacity:0.5;stroke:#0d300d;stroke-linejoin:miter;"/>
   </g>
   <g id="patch_5">
    <path d="M 137.241948 235.51954 
C 146.05694 236.003556 154.895335 235.185865 163.471911 233.092855 
C 172.048487 230.999845 180.269983 227.654275 187.871086 223.164109 
L 142.168446 145.797151 
L 137.241948 235.51954 
z
" style="fill:#400c0c;opacity:0.5;stroke:#400c0c;stroke-linejoin:miter;"/>
   </g>
   <g id="patch_6">
    <path d="M 187.871086 223.164109 
C 191.087146 221.2643 194.18162 219.165806 197.136492 216.880844 
C 200.091363 214.595883 202.900887 212.128896 205.548706 209.494248 
L 142.168446 145.797151 
L 187.871086 223.164109 
z
" style="fill:#2c1f39;opacity:0.5;stroke:#2c1f39;stroke-linejoin:miter;"/>
   </g>
   <g id="patch_7">
    <path d="M 205.548706 209.494248 
C 206.925247 208.124554 208.257026 206.710598 209.541945 205.254608 
C 210.826864 203.798617 212.064248 202.301357 213.252148 200.765186 
L 142.168446 145.797151 
L 205.548706 209.494248 
z
" style="fill:#2a1a16;opacity:0.5;stroke:#2a1a16;stroke-linejoin:miter;"/>
   </g>
   <g id="patch_8">
    <path d="M 213.252148 200.765186 
C 214.440047 199.229016 215.577838 197.654741 216.663727 196.044844 
C 217.749616 194.434946 218.783034 192.790272 219.762351 191.113411 
L 142.168446 145.797151 
L 213.252148 200.765186 
z
" style="fill:#44243a;opacity:0.5;stroke:#44243a;stroke-linejoin:miter;"/>
   </g>
   <g id="patch_9">
    <path d="M 219.762351 191.113411 
C 220.590984 189.694564 221.380544 188.253255 222.130141 186.791112 
C 222.879738 185.328968 223.58909 183.84654 224.257397 182.345498 
L 142.168446 145.797151 
L 219.762351 191.113411 
z
" style="fill:#262626;opacity:0.5;stroke:#262626;stroke-linejoin:miter;"/>
   </g>
   <g id="patch_10">
    <path d="M 224.257397 182.345498 
C 226.811282 176.609376 228.756915 170.621333 230.062385 164.479576 
C 231.367855 158.337819 232.025987 152.076109 232.025986 145.797141 
L 142.168446 145.797151 
L 224.257397 182.345498 
z
" style="fill:#38390a;opacity:0.5;stroke:#38390a;stroke-linejoin:miter;"/>
   </g>
   <g id="patch_11">
    <path d="M 233.823137 144 
C 233.823137 124.720802 227.618525 105.944085 216.131507 90.460679 
C 204.64449 74.977272 188.473847 63.594275 170.023062 58.00357 
C 151.572276 52.412864 131.803127 52.905877 113.653952 59.409329 
C 95.504776 65.912781 79.921631 78.087669 69.220678 94.124409 
L 143.965597 144 
L 233.823137 144 
z
" style="fill:#1f77b4;"/>
   </g>
   <g id="patch_12">
    <path d="M 69.220678 94.124409 
C 58.009253 110.926156 52.784028 131.027194 54.393917 151.161816 
C 56.003806 171.296439 64.356634 190.311826 78.095362 205.118652 
L 143.965597 144 
L 69.220678 94.124409 
z
" style="fill:#ff7f0e;"/>
   </g>
   <g id="patch_13">
    <path d="M 78.095362 205.118652 
C 85.941937 213.575248 95.344115 220.442212 105.787229 225.343652 
C 116.230343 230.245092 127.520301 233.089912 139.039099 233.722389 
L 143.965597 144 
L 78.095362 205.118652 
z
" style="fill:#2ca02c;"/>
   </g>
   <g id="patch_14">
    <path d="M 139.039099 233.722389 
C 147.85409 234.206405 156.692485 233.388714 165.269061 231.295704 
C 173.845638 229.202694 182.067134 225.857124 189.668237 221.366958 
L 143.965597 144 
L 139.039099 233.722389 
z
" style="fill:#d62728;"/>
   </g>
   <g id="patch_15">
    <path d="M 189.668237 221.366958 
C 192.884297 219.467149 195.978771 217.368655 198.933642 215.083694 
C 201.888514 212.798732 204.698038 210.331745 207.345857 207.697097 
L 143.965597 144 
L 189.668237 221.366958 
z
" style="fill:#9467bd;"/>
   </g>
   <g id="patch_16">
    <path d="M 207.345857 207.697097 
C 208.722398 206.327403 210.054177 204.913447 211.339096 203.457457 
C 212.624015 202.001466 213.861399 200.504206 215.049298 198.968035 
L 143.965597 144 
L 207.345857 207.697097 
z
" style="fill:#8c564b;"/>
   </g>
   <g id="patch_17">
    <path d="M 215.049298 198.968035 
C 216.237198 197.431865 217.374988 195.857591 218.460878 194.247693 
C 219.546767 192.637796 220.580185 190.993121 221.559502 189.31626 
L 143.965597 144 
L 215.049298 198.968035 
z
" style="fill:#e377c2;"/>
   </g>
   <g id="patch_18">
    <path d="M 221.559502 189.31626 
C 222.388135 187.897413 223.177695 186.456104 223.927292 184.993961 
C 224.676889 183.531818 225.386241 182.049389 226.054548 180.548347 
L 143.965597 144 
L 221.559502 189.31626 
z
" style="fill:#7f7f7f;"/>
   </g>
   <g id="patch_19">
    <path d="M 226.054548 180.548347 
C 228.608433 174.812225 230.554066 168.824182 231.859536 162.682425 
C 233.165006 156.540668 233.823138 150.278958 233.823137 143.999991 
L 143.965597 144 
L 226.054548 180.548347 
z
" style="fill:#bcbd22;"/>
   </g>
   <g id="matplotlib.axis_1"/>
   <g id="matplotlib.axis_2"/>
   <g id="text_1">
    <!-- CMake -->
    <g transform="translate(175.234555 43.563658)scale(0.1 -0.1)">
     <defs>
      <path d="M 4122 4306 
L 4122 3641 
Q 3803 3938 3442 4084 
Q 3081 4231 2675 4231 
Q 1875 4231 1450 3742 
Q 1025 3253 1025 2328 
Q 1025 1406 1450 917 
Q 1875 428 2675 428 
Q 3081 428 3442 575 
Q 3803 722 4122 1019 
L 4122 359 
Q 3791 134 3420 21 
Q 3050 -91 2638 -91 
Q 1578 -91 968 557 
Q 359 1206 359 2328 
Q 359 3453 968 4101 
Q 1578 4750 2638 4750 
Q 3056 4750 3426 4639 
Q 3797 4528 4122 4306 
z
" id="DejaVuSans-43" transform="scale(0.015625)"/>
      <path d="M 628 4666 
L 1569 4666 
L 2759 1491 
L 3956 4666 
L 4897 4666 
L 4897 0 
L 4281 0 
L 4281 4097 
L 3078 897 
L 2444 897 
L 1241 4097 
L 1241 0 
L 628 0 
L 628 4666 
z
" id="DejaVuSans-4d" transform="scale(0.015625)"/>
      <path d="M 2194 1759 
Q 1497 1759 1228 1600 
Q 959 1441 959 1056 
Q 959 750 1161 570 
Q 1363 391 1709 391 
Q 2188 391 2477 730 
Q 2766 1069 2766 1631 
L 2766 1759 
L 2194 1759 
z
M 3341 1997 
L 3341 0 
L 2766 0 
L 2766 531 
Q 2569 213 2275 61 
Q 1981 -91 1556 -91 
Q 1019 -91 701 211 
Q 384 513 384 1019 
Q 384 1609 779 1909 
Q 1175 2209 1959 2209 
L 2766 2209 
L 2766 2266 
Q 2766 2663 2505 2880 
Q 2244 3097 1772 3097 
Q 1472 3097 1187 3025 
Q 903 2953 641 2809 
L 641 3341 
Q 956 3463 1253 3523 
Q 1550 3584 1831 3584 
Q 2591 3584 2966 3190 
Q 3341 2797 3341 1997 
z
" id="DejaVuSans-61" transform="scale(0.015625)"/>
      <path d="M 581 4863 
L 1159 4863 
L 1159 1991 
L 2875 3500 
L 3609 3500 
L 1753 1863 
L 3688 0 
L 2938 0 
L 1159 1709 
L 1159 0 
L 581 0 
L 581 4863 
z
" id="DejaVuSans-6b" transform="scale(0.015625)"/>
      <path d="M 3597 1894 
L 3597 1613 
L 953 1613 
Q 991 1019 1311 708 
Q 1631 397 2203 397 
Q 2534 397 2845 478 
Q 3156 559 3463 722 
L 3463 178 
Q 3153 47 2828 -22 
Q 2503 -91 2169 -91 
Q 1331 -91 842 396 
Q 353 884 353 1716 
Q 353 2575 817 3079 
Q 1281 3584 2069 3584 
Q 2775 3584 3186 3129 
Q 3597 2675 3597 1894 
z
M 3022 2063 
Q 3016 2534 2758 2815 
Q 2500 3097 2075 3097 
Q 1594 3097 1305 2825 
Q 1016 2553 972 2059 
L 3022 2063 
z
" id="DejaVuSans-65" transform="scale(0.015625)"/>
     </defs>
     <use xlink:href="#DejaVuSans-43"/>
     <use x="69.824219" xlink:href="#DejaVuSans-4d"/>
     <use x="156.103516" xlink:href="#DejaVuSans-61"/>
     <use x="217.382812" xlink:href="#DejaVuSans-6b"/>
     <use x="271.667969" xlink:href="#DejaVuSans-65"/>
    </g>
   </g>
   <g id="text_2">
    <!-- 40.6% -->
    <g transform="translate(148.927975 77.962231)scale(0.1 -0.1)">
     <defs>
      <path d="M 2419 4116 
L 825 1625 
L 2419 1625 
L 2419 4116 
z
M 2253 4666 
L 3047 4666 
L 3047 1625 
L 3713 1625 
L 3713 1100 
L 3047 1100 
L 3047 0 
L 2419 0 
L 2419 1100 
L 313 1100 
L 313 1709 
L 2253 4666 
z
" id="DejaVuSans-34" transform="scale(0.015625)"/>
      <path d="M 2034 4250 
Q 1547 4250 1301 3770 
Q 1056 3291 1056 2328 
Q 1056 1369 1301 889 
Q 1547 409 2034 409 
Q 2525 409 2770 889 
Q 3016 1369 3016 2328 
Q 3016 3291 2770 3770 
Q 2525 4250 2034 4250 
z
M 2034 4750 
Q 2819 4750 3233 4129 
Q 3647 3509 3647 2328 
Q 3647 1150 3233 529 
Q 2819 -91 2034 -91 
Q 1250 -91 836 529 
Q 422 1150 422 2328 
Q 422 3509 836 4129 
Q 1250 4750 2034 4750 
z
" id="DejaVuSans-30" transform="scale(0.015625)"/>
      <path d="M 684 794 
L 1344 794 
L 1344 0 
L 684 0 
L 684 794 
z
" id="DejaVuSans-2e" transform="scale(0.015625)"/>
      <path d="M 2113 2584 
Q 1688 2584 1439 2293 
Q 1191 2003 1191 1497 
Q 1191 994 1439 701 
Q 1688 409 2113 409 
Q 2538 409 2786 701 
Q 3034 994 3034 1497 
Q 3034 2003 2786 2293 
Q 2538 2584 2113 2584 
z
M 3366 4563 
L 3366 3988 
Q 3128 4100 2886 4159 
Q 2644 4219 2406 4219 
Q 1781 4219 1451 3797 
Q 1122 3375 1075 2522 
Q 1259 2794 1537 2939 
Q 1816 3084 2150 3084 
Q 2853 3084 3261 2657 
Q 3669 2231 3669 1497 
Q 3669 778 3244 343 
Q 2819 -91 2113 -91 
Q 1303 -91 875 529 
Q 447 1150 447 2328 
Q 447 3434 972 4092 
Q 1497 4750 2381 4750 
Q 2619 4750 2861 4703 
Q 3103 4656 3366 4563 
z
" id="DejaVuSans-36" transform="scale(0.015625)"/>
      <path d="M 4653 2053 
Q 4381 2053 4226 1822 
Q 4072 1591 4072 1178 
Q 4072 772 4226 539 
Q 4381 306 4653 306 
Q 4919 306 5073 539 
Q 5228 772 5228 1178 
Q 5228 1588 5073 1820 
Q 4919 2053 4653 2053 
z
M 4653 2450 
Q 5147 2450 5437 2106 
Q 5728 1763 5728 1178 
Q 5728 594 5436 251 
Q 5144 -91 4653 -91 
Q 4153 -91 3862 251 
Q 3572 594 3572 1178 
Q 3572 1766 3864 2108 
Q 4156 2450 4653 2450 
z
M 1428 4353 
Q 1159 4353 1004 4120 
Q 850 3888 850 3481 
Q 850 3069 1003 2837 
Q 1156 2606 1428 2606 
Q 1700 2606 1854 2837 
Q 2009 3069 2009 3481 
Q 2009 3884 1853 4118 
Q 1697 4353 1428 4353 
z
M 4250 4750 
L 4750 4750 
L 1831 -91 
L 1331 -91 
L 4250 4750 
z
M 1428 4750 
Q 1922 4750 2215 4408 
Q 2509 4066 2509 3481 
Q 2509 2891 2217 2550 
Q 1925 2209 1428 2209 
Q 931 2209 642 2551 
Q 353 2894 353 3481 
Q 353 4063 643 4406 
Q 934 4750 1428 4750 
z
" id="DejaVuSans-25" transform="scale(0.015625)"/>
     </defs>
     <use xlink:href="#DejaVuSans-34"/>
     <use x="63.623047" xlink:href="#DejaVuSans-30"/>
     <use x="127.246094" xlink:href="#DejaVuSans-2e"/>
     <use x="159.033203" xlink:href="#DejaVuSans-36"/>
     <use x="222.65625" xlink:href="#DejaVuSans-25"/>
    </g>
   </g>
   <g id="text_3">
    <!-- Make -->
    <g transform="translate(10.142081 155.353555)scale(0.1 -0.1)">
     <use xlink:href="#DejaVuSans-4d"/>
     <use x="86.279297" xlink:href="#DejaVuSans-61"/>
     <use x="147.558594" xlink:href="#DejaVuSans-6b"/>
     <use x="201.84375" xlink:href="#DejaVuSans-65"/>
    </g>
   </g>
   <g id="text_4">
    <!-- 21.3% -->
    <g transform="translate(56.424659 152.488828)scale(0.1 -0.1)">
     <defs>
      <path d="M 1228 531 
L 3431 531 
L 3431 0 
L 469 0 
L 469 531 
Q 828 903 1448 1529 
Q 2069 2156 2228 2338 
Q 2531 2678 2651 2914 
Q 2772 3150 2772 3378 
Q 2772 3750 2511 3984 
Q 2250 4219 1831 4219 
Q 1534 4219 1204 4116 
Q 875 4013 500 3803 
L 500 4441 
Q 881 4594 1212 4672 
Q 1544 4750 1819 4750 
Q 2544 4750 2975 4387 
Q 3406 4025 3406 3419 
Q 3406 3131 3298 2873 
Q 3191 2616 2906 2266 
Q 2828 2175 2409 1742 
Q 1991 1309 1228 531 
z
" id="DejaVuSans-32" transform="scale(0.015625)"/>
      <path d="M 794 531 
L 1825 531 
L 1825 4091 
L 703 3866 
L 703 4441 
L 1819 4666 
L 2450 4666 
L 2450 531 
L 3481 531 
L 3481 0 
L 794 0 
L 794 531 
z
" id="DejaVuSans-31" transform="scale(0.015625)"/>
      <path d="M 2597 2516 
Q 3050 2419 3304 2112 
Q 3559 1806 3559 1356 
Q 3559 666 3084 287 
Q 2609 -91 1734 -91 
Q 1441 -91 1130 -33 
Q 819 25 488 141 
L 488 750 
Q 750 597 1062 519 
Q 1375 441 1716 441 
Q 2309 441 2620 675 
Q 2931 909 2931 1356 
Q 2931 1769 2642 2001 
Q 2353 2234 1838 2234 
L 1294 2234 
L 1294 2753 
L 1863 2753 
Q 2328 2753 2575 2939 
Q 2822 3125 2822 3475 
Q 2822 3834 2567 4026 
Q 2313 4219 1838 4219 
Q 1578 4219 1281 4162 
Q 984 4106 628 3988 
L 628 4550 
Q 988 4650 1302 4700 
Q 1616 4750 1894 4750 
Q 2613 4750 3031 4423 
Q 3450 4097 3450 3541 
Q 3450 3153 3228 2886 
Q 3006 2619 2597 2516 
z
" id="DejaVuSans-33" transform="scale(0.015625)"/>
     </defs>
     <use xlink:href="#DejaVuSans-32"/>
     <use x="63.623047" xlink:href="#DejaVuSans-31"/>
     <use x="127.246094" xlink:href="#DejaVuSans-2e"/>
     <use x="159.033203" xlink:href="#DejaVuSans-33"/>
     <use x="222.65625" xlink:href="#DejaVuSans-25"/>
    </g>
   </g>
   <g id="text_5">
    <!-- Gradle -->
    <g transform="translate(64.884368 244.371757)scale(0.1 -0.1)">
     <defs>
      <path d="M 3809 666 
L 3809 1919 
L 2778 1919 
L 2778 2438 
L 4434 2438 
L 4434 434 
Q 4069 175 3628 42 
Q 3188 -91 2688 -91 
Q 1594 -91 976 548 
Q 359 1188 359 2328 
Q 359 3472 976 4111 
Q 1594 4750 2688 4750 
Q 3144 4750 3555 4637 
Q 3966 4525 4313 4306 
L 4313 3634 
Q 3963 3931 3569 4081 
Q 3175 4231 2741 4231 
Q 1884 4231 1454 3753 
Q 1025 3275 1025 2328 
Q 1025 1384 1454 906 
Q 1884 428 2741 428 
Q 3075 428 3337 486 
Q 3600 544 3809 666 
z
" id="DejaVuSans-47" transform="scale(0.015625)"/>
      <path d="M 2631 2963 
Q 2534 3019 2420 3045 
Q 2306 3072 2169 3072 
Q 1681 3072 1420 2755 
Q 1159 2438 1159 1844 
L 1159 0 
L 581 0 
L 581 3500 
L 1159 3500 
L 1159 2956 
Q 1341 3275 1631 3429 
Q 1922 3584 2338 3584 
Q 2397 3584 2469 3576 
Q 2541 3569 2628 3553 
L 2631 2963 
z
" id="DejaVuSans-72" transform="scale(0.015625)"/>
      <path d="M 2906 2969 
L 2906 4863 
L 3481 4863 
L 3481 0 
L 2906 0 
L 2906 525 
Q 2725 213 2448 61 
Q 2172 -91 1784 -91 
Q 1150 -91 751 415 
Q 353 922 353 1747 
Q 353 2572 751 3078 
Q 1150 3584 1784 3584 
Q 2172 3584 2448 3432 
Q 2725 3281 2906 2969 
z
M 947 1747 
Q 947 1113 1208 752 
Q 1469 391 1925 391 
Q 2381 391 2643 752 
Q 2906 1113 2906 1747 
Q 2906 2381 2643 2742 
Q 2381 3103 1925 3103 
Q 1469 3103 1208 2742 
Q 947 2381 947 1747 
z
" id="DejaVuSans-64" transform="scale(0.015625)"/>
      <path d="M 603 4863 
L 1178 4863 
L 1178 0 
L 603 0 
L 603 4863 
z
" id="DejaVuSans-6c" transform="scale(0.015625)"/>
     </defs>
     <use xlink:href="#DejaVuSans-47"/>
     <use x="77.490234" xlink:href="#DejaVuSans-72"/>
     <use x="118.603516" xlink:href="#DejaVuSans-61"/>
     <use x="179.882812" xlink:href="#DejaVuSans-64"/>
     <use x="243.359375" xlink:href="#DejaVuSans-6c"/>
     <use x="271.142578" xlink:href="#DejaVuSans-65"/>
    </g>
   </g>
   <g id="text_6">
    <!-- 12.2% -->
    <g transform="translate(97.539309 211.834297)scale(0.1 -0.1)">
     <use xlink:href="#DejaVuSans-31"/>
     <use x="63.623047" xlink:href="#DejaVuSans-32"/>
     <use x="127.246094" xlink:href="#DejaVuSans-2e"/>
     <use x="159.033203" xlink:href="#DejaVuSans-32"/>
     <use x="222.65625" xlink:href="#DejaVuSans-25"/>
    </g>
   </g>
   <g id="text_7">
    <!-- Autoconf -->
    <g transform="translate(169.529754 251.51422)scale(0.1 -0.1)">
     <defs>
      <path d="M 2188 4044 
L 1331 1722 
L 3047 1722 
L 2188 4044 
z
M 1831 4666 
L 2547 4666 
L 4325 0 
L 3669 0 
L 3244 1197 
L 1141 1197 
L 716 0 
L 50 0 
L 1831 4666 
z
" id="DejaVuSans-41" transform="scale(0.015625)"/>
      <path d="M 544 1381 
L 544 3500 
L 1119 3500 
L 1119 1403 
Q 1119 906 1312 657 
Q 1506 409 1894 409 
Q 2359 409 2629 706 
Q 2900 1003 2900 1516 
L 2900 3500 
L 3475 3500 
L 3475 0 
L 2900 0 
L 2900 538 
Q 2691 219 2414 64 
Q 2138 -91 1772 -91 
Q 1169 -91 856 284 
Q 544 659 544 1381 
z
M 1991 3584 
L 1991 3584 
z
" id="DejaVuSans-75" transform="scale(0.015625)"/>
      <path d="M 1172 4494 
L 1172 3500 
L 2356 3500 
L 2356 3053 
L 1172 3053 
L 1172 1153 
Q 1172 725 1289 603 
Q 1406 481 1766 481 
L 2356 481 
L 2356 0 
L 1766 0 
Q 1100 0 847 248 
Q 594 497 594 1153 
L 594 3053 
L 172 3053 
L 172 3500 
L 594 3500 
L 594 4494 
L 1172 4494 
z
" id="DejaVuSans-74" transform="scale(0.015625)"/>
      <path d="M 1959 3097 
Q 1497 3097 1228 2736 
Q 959 2375 959 1747 
Q 959 1119 1226 758 
Q 1494 397 1959 397 
Q 2419 397 2687 759 
Q 2956 1122 2956 1747 
Q 2956 2369 2687 2733 
Q 2419 3097 1959 3097 
z
M 1959 3584 
Q 2709 3584 3137 3096 
Q 3566 2609 3566 1747 
Q 3566 888 3137 398 
Q 2709 -91 1959 -91 
Q 1206 -91 779 398 
Q 353 888 353 1747 
Q 353 2609 779 3096 
Q 1206 3584 1959 3584 
z
" id="DejaVuSans-6f" transform="scale(0.015625)"/>
      <path d="M 3122 3366 
L 3122 2828 
Q 2878 2963 2633 3030 
Q 2388 3097 2138 3097 
Q 1578 3097 1268 2742 
Q 959 2388 959 1747 
Q 959 1106 1268 751 
Q 1578 397 2138 397 
Q 2388 397 2633 464 
Q 2878 531 3122 666 
L 3122 134 
Q 2881 22 2623 -34 
Q 2366 -91 2075 -91 
Q 1284 -91 818 406 
Q 353 903 353 1747 
Q 353 2603 823 3093 
Q 1294 3584 2113 3584 
Q 2378 3584 2631 3529 
Q 2884 3475 3122 3366 
z
" id="DejaVuSans-63" transform="scale(0.015625)"/>
      <path d="M 3513 2113 
L 3513 0 
L 2938 0 
L 2938 2094 
Q 2938 2591 2744 2837 
Q 2550 3084 2163 3084 
Q 1697 3084 1428 2787 
Q 1159 2491 1159 1978 
L 1159 0 
L 581 0 
L 581 3500 
L 1159 3500 
L 1159 2956 
Q 1366 3272 1645 3428 
Q 1925 3584 2291 3584 
Q 2894 3584 3203 3211 
Q 3513 2838 3513 2113 
z
" id="DejaVuSans-6e" transform="scale(0.015625)"/>
      <path d="M 2375 4863 
L 2375 4384 
L 1825 4384 
Q 1516 4384 1395 4259 
Q 1275 4134 1275 3809 
L 1275 3500 
L 2222 3500 
L 2222 3053 
L 1275 3053 
L 1275 0 
L 697 0 
L 697 3053 
L 147 3053 
L 147 3500 
L 697 3500 
L 697 3744 
Q 697 4328 969 4595 
Q 1241 4863 1831 4863 
L 2375 4863 
z
" id="DejaVuSans-66" transform="scale(0.015625)"/>
     </defs>
     <use xlink:href="#DejaVuSans-41"/>
     <use x="68.408203" xlink:href="#DejaVuSans-75"/>
     <use x="131.787109" xlink:href="#DejaVuSans-74"/>
     <use x="170.996094" xlink:href="#DejaVuSans-6f"/>
     <use x="232.177734" xlink:href="#DejaVuSans-63"/>
     <use x="287.158203" xlink:href="#DejaVuSans-6f"/>
     <use x="348.339844" xlink:href="#DejaVuSans-6e"/>
     <use x="411.71875" xlink:href="#DejaVuSans-66"/>
    </g>
   </g>
   <g id="text_8">
    <!-- 9.4% -->
    <g transform="translate(148.306025 216.595938)scale(0.1 -0.1)">
     <defs>
      <path d="M 703 97 
L 703 672 
Q 941 559 1184 500 
Q 1428 441 1663 441 
Q 2288 441 2617 861 
Q 2947 1281 2994 2138 
Q 2813 1869 2534 1725 
Q 2256 1581 1919 1581 
Q 1219 1581 811 2004 
Q 403 2428 403 3163 
Q 403 3881 828 4315 
Q 1253 4750 1959 4750 
Q 2769 4750 3195 4129 
Q 3622 3509 3622 2328 
Q 3622 1225 3098 567 
Q 2575 -91 1691 -91 
Q 1453 -91 1209 -44 
Q 966 3 703 97 
z
M 1959 2075 
Q 2384 2075 2632 2365 
Q 2881 2656 2881 3163 
Q 2881 3666 2632 3958 
Q 2384 4250 1959 4250 
Q 1534 4250 1286 3958 
Q 1038 3666 1038 3163 
Q 1038 2656 1286 2365 
Q 1534 2075 1959 2075 
z
" id="DejaVuSans-39" transform="scale(0.015625)"/>
     </defs>
     <use xlink:href="#DejaVuSans-39"/>
     <use x="63.623047" xlink:href="#DejaVuSans-2e"/>
     <use x="95.410156" xlink:href="#DejaVuSans-34"/>
     <use x="159.033203" xlink:href="#DejaVuSans-25"/>
    </g>
   </g>
   <g id="text_9">
    <!-- Visual Studio -->
    <g transform="translate(209.927252 232.059807)scale(0.1 -0.1)">
     <defs>
      <path d="M 1831 0 
L 50 4666 
L 709 4666 
L 2188 738 
L 3669 4666 
L 4325 4666 
L 2547 0 
L 1831 0 
z
" id="DejaVuSans-56" transform="scale(0.015625)"/>
      <path d="M 603 3500 
L 1178 3500 
L 1178 0 
L 603 0 
L 603 3500 
z
M 603 4863 
L 1178 4863 
L 1178 4134 
L 603 4134 
L 603 4863 
z
" id="DejaVuSans-69" transform="scale(0.015625)"/>
      <path d="M 2834 3397 
L 2834 2853 
Q 2591 2978 2328 3040 
Q 2066 3103 1784 3103 
Q 1356 3103 1142 2972 
Q 928 2841 928 2578 
Q 928 2378 1081 2264 
Q 1234 2150 1697 2047 
L 1894 2003 
Q 2506 1872 2764 1633 
Q 3022 1394 3022 966 
Q 3022 478 2636 193 
Q 2250 -91 1575 -91 
Q 1294 -91 989 -36 
Q 684 19 347 128 
L 347 722 
Q 666 556 975 473 
Q 1284 391 1588 391 
Q 1994 391 2212 530 
Q 2431 669 2431 922 
Q 2431 1156 2273 1281 
Q 2116 1406 1581 1522 
L 1381 1569 
Q 847 1681 609 1914 
Q 372 2147 372 2553 
Q 372 3047 722 3315 
Q 1072 3584 1716 3584 
Q 2034 3584 2315 3537 
Q 2597 3491 2834 3397 
z
" id="DejaVuSans-73" transform="scale(0.015625)"/>
      <path id="DejaVuSans-20" transform="scale(0.015625)"/>
      <path d="M 3425 4513 
L 3425 3897 
Q 3066 4069 2747 4153 
Q 2428 4238 2131 4238 
Q 1616 4238 1336 4038 
Q 1056 3838 1056 3469 
Q 1056 3159 1242 3001 
Q 1428 2844 1947 2747 
L 2328 2669 
Q 3034 2534 3370 2195 
Q 3706 1856 3706 1288 
Q 3706 609 3251 259 
Q 2797 -91 1919 -91 
Q 1588 -91 1214 -16 
Q 841 59 441 206 
L 441 856 
Q 825 641 1194 531 
Q 1563 422 1919 422 
Q 2459 422 2753 634 
Q 3047 847 3047 1241 
Q 3047 1584 2836 1778 
Q 2625 1972 2144 2069 
L 1759 2144 
Q 1053 2284 737 2584 
Q 422 2884 422 3419 
Q 422 4038 858 4394 
Q 1294 4750 2059 4750 
Q 2388 4750 2728 4690 
Q 3069 4631 3425 4513 
z
" id="DejaVuSans-53" transform="scale(0.015625)"/>
     </defs>
     <use xlink:href="#DejaVuSans-56"/>
     <use x="66.158203" xlink:href="#DejaVuSans-69"/>
     <use x="93.941406" xlink:href="#DejaVuSans-73"/>
     <use x="146.041016" xlink:href="#DejaVuSans-75"/>
     <use x="209.419922" xlink:href="#DejaVuSans-61"/>
     <use x="270.699219" xlink:href="#DejaVuSans-6c"/>
     <use x="298.482422" xlink:href="#DejaVuSans-20"/>
     <use x="330.269531" xlink:href="#DejaVuSans-53"/>
     <use x="393.746094" xlink:href="#DejaVuSans-74"/>
     <use x="432.955078" xlink:href="#DejaVuSans-75"/>
     <use x="496.333984" xlink:href="#DejaVuSans-64"/>
     <use x="559.810547" xlink:href="#DejaVuSans-69"/>
     <use x="587.59375" xlink:href="#DejaVuSans-6f"/>
    </g>
   </g>
   <g id="text_10">
    <!-- 4.0% -->
    <g transform="translate(175.23769 203.62633)scale(0.1 -0.1)">
     <use xlink:href="#DejaVuSans-34"/>
     <use x="63.623047" xlink:href="#DejaVuSans-2e"/>
     <use x="95.410156" xlink:href="#DejaVuSans-30"/>
     <use x="159.033203" xlink:href="#DejaVuSans-25"/>
    </g>
   </g>
   <g id="text_11">
    <!-- Ant -->
    <g transform="translate(224.813796 218.108323)scale(0.1 -0.1)">
     <use xlink:href="#DejaVuSans-41"/>
     <use x="68.408203" xlink:href="#DejaVuSans-6e"/>
     <use x="131.787109" xlink:href="#DejaVuSans-74"/>
    </g>
   </g>
   <g id="text_12">
    <!-- 2.1% -->
    <g transform="translate(185.162052 194.32534)scale(0.1 -0.1)">
     <use xlink:href="#DejaVuSans-32"/>
     <use x="63.623047" xlink:href="#DejaVuSans-2e"/>
     <use x="95.410156" xlink:href="#DejaVuSans-31"/>
     <use x="159.033203" xlink:href="#DejaVuSans-25"/>
    </g>
   </g>
   <g id="text_13">
    <!-- Maven -->
    <g transform="translate(233.359934 207.056607)scale(0.1 -0.1)">
     <defs>
      <path d="M 191 3500 
L 800 3500 
L 1894 563 
L 2988 3500 
L 3597 3500 
L 2284 0 
L 1503 0 
L 191 3500 
z
" id="DejaVuSans-76" transform="scale(0.015625)"/>
     </defs>
     <use xlink:href="#DejaVuSans-4d"/>
     <use x="86.279297" xlink:href="#DejaVuSans-61"/>
     <use x="147.558594" xlink:href="#DejaVuSans-76"/>
     <use x="206.738281" xlink:href="#DejaVuSans-65"/>
     <use x="268.261719" xlink:href="#DejaVuSans-6e"/>
    </g>
   </g>
   <g id="text_14">
    <!-- 2.1% -->
    <g transform="translate(190.859478 186.957529)scale(0.1 -0.1)">
     <use xlink:href="#DejaVuSans-32"/>
     <use x="63.623047" xlink:href="#DejaVuSans-2e"/>
     <use x="95.410156" xlink:href="#DejaVuSans-31"/>
     <use x="159.033203" xlink:href="#DejaVuSans-25"/>
    </g>
   </g>
   <g id="text_15">
    <!-- Scons -->
    <g transform="translate(239.919631 195.952128)scale(0.1 -0.1)">
     <use xlink:href="#DejaVuSans-53"/>
     <use x="63.476562" xlink:href="#DejaVuSans-63"/>
     <use x="118.457031" xlink:href="#DejaVuSans-6f"/>
     <use x="179.638672" xlink:href="#DejaVuSans-6e"/>
     <use x="243.017578" xlink:href="#DejaVuSans-73"/>
    </g>
   </g>
   <g id="text_16">
    <!-- 1.7% -->
    <g transform="translate(195.232609 179.554544)scale(0.1 -0.1)">
     <defs>
      <path d="M 525 4666 
L 3525 4666 
L 3525 4397 
L 1831 0 
L 1172 0 
L 2766 4134 
L 525 4134 
L 525 4666 
z
" id="DejaVuSans-37" transform="scale(0.015625)"/>
     </defs>
     <use xlink:href="#DejaVuSans-31"/>
     <use x="63.623047" xlink:href="#DejaVuSans-2e"/>
     <use x="95.410156" xlink:href="#DejaVuSans-37"/>
     <use x="159.033203" xlink:href="#DejaVuSans-25"/>
    </g>
   </g>
   <g id="text_17">
    <!-- Other -->
    <g transform="translate(249.438324 169.178285)scale(0.1 -0.1)">
     <defs>
      <path d="M 2522 4238 
Q 1834 4238 1429 3725 
Q 1025 3213 1025 2328 
Q 1025 1447 1429 934 
Q 1834 422 2522 422 
Q 3209 422 3611 934 
Q 4013 1447 4013 2328 
Q 4013 3213 3611 3725 
Q 3209 4238 2522 4238 
z
M 2522 4750 
Q 3503 4750 4090 4092 
Q 4678 3434 4678 2328 
Q 4678 1225 4090 567 
Q 3503 -91 2522 -91 
Q 1538 -91 948 565 
Q 359 1222 359 2328 
Q 359 3434 948 4092 
Q 1538 4750 2522 4750 
z
" id="DejaVuSans-4f" transform="scale(0.015625)"/>
      <path d="M 3513 2113 
L 3513 0 
L 2938 0 
L 2938 2094 
Q 2938 2591 2744 2837 
Q 2550 3084 2163 3084 
Q 1697 3084 1428 2787 
Q 1159 2491 1159 1978 
L 1159 0 
L 581 0 
L 581 4863 
L 1159 4863 
L 1159 2956 
Q 1366 3272 1645 3428 
Q 1925 3584 2291 3584 
Q 2894 3584 3203 3211 
Q 3513 2838 3513 2113 
z
" id="DejaVuSans-68" transform="scale(0.015625)"/>
     </defs>
     <use xlink:href="#DejaVuSans-4f"/>
     <use x="78.710938" xlink:href="#DejaVuSans-74"/>
     <use x="117.919922" xlink:href="#DejaVuSans-68"/>
     <use x="181.298828" xlink:href="#DejaVuSans-65"/>
     <use x="242.822266" xlink:href="#DejaVuSans-72"/>
    </g>
   </g>
   <g id="text_18">
    <!-- 6.7% -->
    <g transform="translate(201.578404 161.705315)scale(0.1 -0.1)">
     <use xlink:href="#DejaVuSans-36"/>
     <use x="63.623047" xlink:href="#DejaVuSans-2e"/>
     <use x="95.410156" xlink:href="#DejaVuSans-37"/>
     <use x="159.033203" xlink:href="#DejaVuSans-25"/>
    </g>
   </g>
  </g>
 </g>
</svg>
